<?xml version="1.0" encoding="UTF-8" standalone="no"?>
<!-- Created with Inkscape (http://www.inkscape.org/) -->

<svg
   xmlns:dc="http://purl.org/dc/elements/1.1/"
   xmlns:cc="http://creativecommons.org/ns#"
   xmlns:rdf="http://www.w3.org/1999/02/22-rdf-syntax-ns#"
   xmlns:svg="http://www.w3.org/2000/svg"
   xmlns="http://www.w3.org/2000/svg"
   xmlns:sodipodi="http://sodipodi.sourceforge.net/DTD/sodipodi-0.dtd"
   xmlns:inkscape="http://www.inkscape.org/namespaces/inkscape"
   width="510.80463"
   height="453.40265"
   id="svg2"
   version="1.1"
   inkscape:version="0.92.3 (2405546, 2018-03-11)"
   sodipodi:docname="ElkProxy.svg">
  <defs
     id="defs4" />
  <sodipodi:namedview
     id="base"
     pagecolor="#ffffff"
     bordercolor="#666666"
     borderopacity="1.0"
     inkscape:pageopacity="0.0"
     inkscape:pageshadow="2"
     inkscape:zoom="0.7"
     inkscape:cx="715.84602"
     inkscape:cy="-85.384697"
     inkscape:document-units="px"
     inkscape:current-layer="layer1"
     showgrid="false"
     inkscape:snap-page="true"
     inkscape:window-width="1920"
     inkscape:window-height="1017"
     inkscape:window-x="0"
     inkscape:window-y="29"
     inkscape:window-maximized="1"
     fit-margin-top="0"
     fit-margin-left="0"
     fit-margin-right="0"
     fit-margin-bottom="0" />
  <metadata
     id="metadata7">
    <rdf:RDF>
      <cc:Work
         rdf:about="">
        <dc:format>image/svg+xml</dc:format>
        <dc:type
           rdf:resource="http://purl.org/dc/dcmitype/StillImage" />
        <dc:title></dc:title>
      </cc:Work>
    </rdf:RDF>
  </metadata>
  <g
     inkscape:label="Layer 1"
     inkscape:groupmode="layer"
     id="layer1"
     transform="translate(-0.47791226,-598.41866)">
    <path
       inkscape:connector-curvature="0"
       id="path3008"
       d="m 37.542397,1051.645 c -10.283557,-1.0829 -20.436269,-6.3864 -27.075489,-14.1435 -10.51289926,-12.2829 -12.9603708,-29.6466 -6.2323257,-44.216 0.98677,-2.1368 215.7386477,-374.05631 217.5517677,-376.76852 7.03262,-10.51991 18.79453,-17.29311 31.29502,-18.02152 15.05888,-0.8775 28.74965,5.80427 36.92563,18.02152 1.54012,2.30138 215.74745,373.31692 217.15384,376.11902 1.4974,2.9835 2.74865,6.7498 3.50888,10.5619 0.8209,4.1162 0.81656,10.6104 -0.01,14.7944 -3.17423,16.0701 -14.88336,28.5576 -30.52116,32.5503 -5.31192,1.3563 9.99327,1.2722 -224.49595,1.233 -119.46211,-0.02 -217.607263,-0.079 -218.100343,-0.13 z"
       style="fill:#ffdb00;fill-opacity:1" />
    <path
       inkscape:connector-curvature="0"
       id="path3000"
       d="m 39.230964,1051.6034 c -0.07407,-0.1201 -0.999102,-0.2909 -2.055727,-0.3802 -6.122067,-0.5175 -12.710699,-2.9451 -18.597769,-6.8521 -3.267446,-2.1685 -8.555789,-7.4566 -10.723882,-10.7234 -2.170496,-3.2705 -3.7111582,-6.4104 -4.8940765,-9.9745 -0.9850167,-2.9679 -1.7885219,-6.3602 -1.7885219,-7.5508 0,-0.3465 -0.131593,-0.6738 -0.29238066,-0.7273 -0.3646386,-0.1222 -0.42716496,-9.3812 -0.0650085,-9.6371 0.13198696,-0.093 0.43234596,-1.3232 0.66761766,-2.7337 0.5542074,-3.32189 1.9192677,-7.45899 3.4900898,-10.57724 C 6.8119724,988.793 220.1731,619.50587 222.09648,616.64505 c 6.0858,-9.05204 14.94026,-14.96149 25.70437,-17.15508 1.39896,-0.28509 2.90004,-0.51835 3.33576,-0.51835 0.43571,0 0.79222,-0.11524 0.79222,-0.25614 0,-0.15976 1.49415,-0.25613 3.9701,-0.25613 2.476,0 3.97013,0.0963 3.97013,0.25613 0,0.14086 0.34169,0.25614 0.75932,0.25614 1.39733,0 5.82386,0.97784 8.53828,1.88615 8.37967,2.80401 15.56181,8.32757 20.52781,15.78728 1.99643,2.99896 215.13729,372.01655 217.02226,375.7376 1.88899,3.72892 3.9101,10.27375 3.9101,12.66145 0,0.3466 0.13002,0.6732 0.28898,0.7262 0.37224,0.1241 0.39174,8.8711 0.0213,9.5743 -0.14184,0.2691 -0.44962,1.5845 -0.68401,2.9229 -1.82447,10.4163 -8.39194,20.2572 -17.68394,26.4984 -2.20354,1.48 -6.77092,3.7211 -9.34898,4.5872 -2.59638,0.8723 -6.28906,1.6749 -8.6084,1.8711 -1.05068,0.089 -1.97092,0.2594 -2.04493,0.3792 -0.0741,0.1202 -97.57461,0.2179 -216.66794,0.2179 -119.09331,0 -216.593866,-0.099 -216.667897,-0.2179 z M 450.14706,988.52005 263.19467,665.31414 c -2.23152,-3.85789 -8.39233,-10.85407 -14.45845,-0.36169 L 59.596071,992.10219 c -3.112995,9.17581 3.068591,12.41391 7.551851,12.41411 l 374.766648,0.019 c 5.90759,3e-4 13.83942,-6.35618 8.23249,-16.01525 z"
       style="fill:#c60c30;fill-opacity:1"
       sodipodi:nodetypes="csssssccssssssssssssscccssccscccsscssc" />
    <path
       inkscape:connector-curvature="0"
       id="path2998"
       d="m 190.72461,986.75823 c -0.79139,-0.18715 -1.54933,-0.8193 -1.54933,-1.29387 0,-0.30573 0.57044,-0.67254 3.97716,-2.55719 6.47984,-3.58513 7.69966,-4.66387 13.82433,-12.22672 2.20028,-2.71697 4.75781,-6.28002 6.61869,-9.22097 3.37256,-5.32991 8.99509,-13.51273 14.96383,-21.77761 7.09718,-9.82741 7.60161,-10.78984 8.3703,-15.97023 0.46418,-3.12809 0.21672,-5.06392 -0.97812,-7.65161 -1.16686,-2.52718 -1.53201,-4.63736 -1.32812,-7.67536 0.29031,-4.32582 -0.97159,-7.19782 -4.03697,-9.18789 -2.81355,-1.8266 -4.71521,-2.46402 -10.41856,-3.49228 -8.98892,-1.6206 -12.24022,-2.52814 -16.2647,-4.53999 -4.71656,-2.35782 -7.8899,-5.19466 -10.82168,-9.67417 -1.71227,-2.61618 -2.79607,-3.5554 -4.3387,-3.75984 -0.53691,-0.0711 -2.58986,0.12017 -4.56212,0.42504 -5.16097,0.79791 -8.87291,0.94816 -10.65129,0.43118 -1.80688,-0.52527 -2.97772,-1.31729 -3.85359,-2.60676 -0.62859,-0.92543 -0.79905,-1.02227 -1.81895,-1.03348 -1.97671,-0.0217 -3.78289,-1.94547 -3.78289,-4.02913 0,-1.16534 0.68974,-3.41255 1.44244,-4.69948 2.03493,-3.47918 7.42388,-6.48592 14.15222,-7.89617 2.75943,-0.57838 8.74078,-1.42048 10.08951,-1.42048 0.93096,0 0.78877,-0.78423 -0.35599,-1.96347 -1.33411,-1.37428 -3.31303,-2.81278 -6.63022,-4.81961 -6.59328,-3.98882 -12.23097,-9.89845 -14.95613,-15.67761 -0.74677,-1.58367 -0.75847,-2.38457 -0.0349,-2.38457 0.21633,0 1.40137,0.94016 2.63346,2.08923 3.88034,3.61895 9.54614,7.78989 11.96974,8.81167 0.82334,0.34713 1.66847,0.0999 1.66847,-0.48811 0,-0.17986 -0.52558,-1.64295 -1.16798,-3.25139 -1.10009,-2.75447 -2.16179,-6.11183 -2.16179,-6.83608 0,-0.50644 0.63785,-0.38326 1.17695,0.22729 1.04017,1.17807 6.54052,5.56512 7.65191,6.10314 2.10339,1.01825 2.59435,0.25361 1.46247,-2.27778 -0.94778,-2.11969 -1.50088,-4.18543 -1.73223,-6.46957 -0.16272,-1.60695 -0.13396,-1.74634 0.48894,-2.36926 0.36403,-0.36403 0.8936,-0.66187 1.17686,-0.66187 1.29842,0 3.60581,3.07467 5.57432,7.42797 0.60517,1.33831 1.24288,2.43329 1.41713,2.43329 0.19953,0 0.50866,-1.01315 0.83516,-2.73721 0.28511,-1.50548 0.5968,-2.81334 0.69262,-2.90638 0.0959,-0.093 0.40397,0.28121 0.68479,0.83164 0.79283,1.55408 3.58012,5.19615 3.97663,5.19615 0.40303,0 0.66263,-0.76653 0.66778,-1.97183 0.006,-1.35759 1.21459,-4.75675 2.27502,-6.39743 1.67056,-2.58471 2.47745,-2.3847 2.88001,0.71386 0.16587,1.27734 0.15386,2.72476 -0.0368,4.45369 -0.26895,2.4364 -0.25166,2.65926 0.3545,4.56769 1.37743,4.33674 2.68668,4.01509 5.55982,-1.36598 2.66931,-4.99931 4.37489,-6.92681 4.70289,-5.31484 0.0644,0.31698 0.18419,1.67131 0.26579,3.00962 0.26318,4.31227 0.6567,6.43216 1.31646,7.09189 0.32569,0.32572 0.71763,0.59221 0.87094,0.59221 0.15326,0 2.43496,-2.17477 5.07034,-4.83281 6.29044,-6.34453 6.75275,-6.49803 6.08805,-2.02143 -0.55779,3.75649 -0.52751,4.44475 0.22871,5.201 0.77973,0.7797 1.36035,0.79213 2.44856,0.0524 1.07894,-0.73346 2.24437,-2.83603 3.72682,-6.7236 0.64463,-1.69049 1.27678,-3.33296 1.40475,-3.64993 0.12982,-0.32165 0.45388,-0.57631 0.73322,-0.57631 0.29092,0 0.58155,0.24132 0.69407,0.57631 0.3435,1.02261 0.1513,7.38138 -0.28737,9.50385 -0.22868,1.1065 -0.35146,2.07614 -0.27286,2.15472 0.25448,0.2545 1.39666,-0.41525 2.60042,-1.52485 1.25592,-1.15766 4.54809,-5.90813 6.27474,-9.05412 0.57715,-1.05162 1.13981,-1.91204 1.25035,-1.91204 0.63391,0 0.71247,5.40975 0.10815,7.4455 -1.27126,4.28225 -4.01745,7.65834 -11.35065,13.95415 -2.78336,2.38964 -5.99191,5.90006 -5.82515,6.37324 0.12273,0.34813 0.43494,0.2888 4.01356,-0.76312 13.44969,-3.95332 22.46054,-4.78228 30.18058,-2.77645 2.63843,0.68552 3.95746,1.28894 10.51008,4.80808 5.63486,3.02625 8.45232,4.31675 12.7121,5.82256 6.615,2.33837 6.56018,2.3328 23.56631,2.38599 18.36076,0.0573 18.26776,0.0459 26.33614,3.24447 4.13374,1.63871 7.37488,3.28934 9.79081,4.9861 2.04401,1.4355 5.68374,5.29055 6.64785,7.04105 0.71642,1.3008 0.76842,1.57714 0.76842,4.08462 0,2.42305 -0.0705,2.83315 -0.71263,4.14031 -0.39194,0.79803 -1.17116,1.90946 -1.73161,2.46991 l -1.01902,1.01902 0.1511,2.90895 c 0.0831,1.59994 0.17079,4.37045 0.19483,6.15666 0.0493,3.65252 0.27766,4.23698 2.03183,5.19737 l 0.92208,0.50483 2.51502,-0.82085 c 3.60462,-1.17643 11.96109,-3.13437 13.37756,-3.13437 1.47536,0 3.56777,0.98295 4.54061,2.13307 0.378,0.44688 0.95949,1.40457 1.29217,2.1282 0.62657,1.36285 0.77229,2.33097 1.49831,9.95432 1.03196,10.83591 2.75487,17.89577 5.79198,23.7335 0.95246,1.8307 1.32925,2.25965 3.60159,4.09985 3.3652,2.72523 5.32432,4.76297 7.02563,7.30796 2.03313,3.04121 2.57753,4.86677 2.44239,8.19028 -0.0297,0.73145 -0.25277,1.3177 -0.70658,1.85688 -0.59767,0.71037 -0.80721,0.78818 -2.12334,0.78818 -2.91547,0 -5.24896,-0.91524 -9.55129,-3.74607 -2.66469,-1.75326 -4.15459,-3.33355 -6.85158,-7.26795 -1.51655,-2.21226 -3.20604,-5.36759 -4.13243,-7.71787 -1.15416,-2.92812 -2.84404,-9.73053 -3.43802,-13.83936 -0.72008,-4.98111 -1.46417,-6.86181 -3.21749,-8.13185 -1.16381,-0.84309 -3.25846,-1.43462 -4.13807,-1.1686 -0.84542,0.25564 -3.41196,1.88865 -7.25073,4.61338 -3.78245,2.68475 -4.66483,3.17038 -7.15456,3.93768 -5.50752,1.69735 -11.36678,0.41412 -15.41949,-3.37698 -0.92136,-0.86189 -2.01343,-2.05868 -2.4268,-2.65949 -0.45394,-0.65976 -0.88987,-1.03935 -1.10073,-0.95843 -0.4552,0.17474 -2.45811,4.90923 -3.45637,8.17027 -1.06632,3.48343 -1.48243,5.60886 -1.92742,9.84448 -0.44237,4.21105 -0.74835,5.02783 -2.89211,7.72037 -2.23771,2.81033 -3.87904,4.40403 -7.62893,7.40683 -7.52985,6.02964 -12.67876,10.51424 -12.67876,11.04297 0,0.12214 0.48987,0.53662 1.08857,0.92175 4.25582,2.73804 8.57242,6.79437 10.84652,10.19274 1.13016,1.68904 1.89629,3.98187 1.89629,5.67524 l 0,1.36853 -0.98357,0 c -3.80527,0 -10.72024,-3.32745 -17.5748,-8.45702 -1.31443,-0.9836 -2.50399,-1.78832 -2.64348,-1.78832 -0.13947,0 -1.96722,1.05195 -4.06163,2.33794 -2.09442,1.28599 -4.4996,2.66633 -5.34484,3.06781 -5.09385,2.41871 -12.05656,2.38818 -14.50856,-0.063 -1.14455,-1.14454 -1.91803,-3.34597 -1.53221,-4.36089 0.60686,-1.59605 2.84396,-2.87495 7.95883,-4.54941 1.62754,-0.53287 3.99655,-1.4361 5.26443,-2.00719 1.26786,-0.57128 2.73745,-1.21585 3.26573,-1.43255 0.52828,-0.2165 0.96051,-0.56833 0.96051,-0.78168 0,-0.48894 -3.38054,-3.45431 -8.22641,-7.21633 -2.05922,-1.59862 -4.09818,-3.30992 -4.53104,-3.803 -2.38573,-2.71716 -5.14877,-8.0185 -5.81788,-11.16237 -0.22448,-1.05476 -0.62511,-3.07036 -0.89024,-4.47909 -1.42052,-7.54707 -2.91459,-14.23759 -3.4345,-15.37989 -0.82827,-1.81976 -2.00146,-3.05414 -3.69162,-3.88414 -1.24854,-0.61313 -1.76453,-0.71421 -3.63242,-0.71157 -2.47761,0.004 -3.73791,0.49639 -5.46461,2.13721 -1.17262,1.1143 -1.727,2.14035 -2.88522,5.33993 -1.21607,3.35947 -1.47571,3.79617 -3.54789,5.96698 -1.90628,1.997 -7.17443,7.87002 -9.64982,10.75772 -0.78493,0.9157 -3.38068,4.14293 -5.76832,7.17174 -2.38763,3.029 -5.35735,6.71735 -6.59939,8.19659 -1.24203,1.47904 -3.07394,3.842 -4.07087,5.25071 -6.60674,9.33582 -8.17766,11.50395 -9.72823,13.42702 -2.03533,2.5241 -2.75931,3.11844 -5.17787,4.24978 -2.37284,1.11027 -4.8106,1.59803 -9.56147,1.91322 -4.47399,0.29687 -6.198,0.29687 -7.45911,0 z m 109.46223,-24.8236 c 1.96241,-1.51509 6.02416,-5.76723 7.76895,-8.13315 4.01621,-5.4456 6.42706,-11.16919 7.41022,-17.5925 0.45904,-2.99898 0.6583,-12.98803 0.26695,-13.38224 -0.1111,-0.11189 -0.57209,-0.0489 -1.02455,0.14006 -4.69704,1.96011 -7.42519,2.45329 -13.50142,2.44066 -4.50135,-0.01 -5.3109,-0.0808 -8.19637,-0.72268 -2.02155,-0.44976 -4.34316,-0.76586 -6.29836,-0.85758 -2.79793,-0.1312 -3.11334,-0.10184 -3.26955,0.30531 -0.42652,1.1115 -0.71699,9.57397 -0.44884,13.07628 0.54074,7.0624 1.8977,10.50256 6.31115,15.99993 2.76296,3.44151 8.8301,9.73315 9.38586,9.73315 0.16036,0 0.87857,-0.45309 1.59596,-1.00704 z"
       style="fill:#020100" />
  </g>
</svg>
